<svg width="20" height="20" viewBox="0 0 20 20" fill="none" xmlns="http://www.w3.org/2000/svg">
<circle cx="10" cy="10" r="10" fill="#1567FF"/>
<path d="M10 4.5C9.96716 4.50002 9.93465 4.49357 9.90431 4.48101C9.87397 4.46845 9.8464 4.45004 9.82318 4.42682C9.79996 4.4036 9.78155 4.37603 9.76899 4.34569C9.75643 4.31535 9.74998 4.28284 9.75 4.25V3.25C9.75 3.1837 9.77634 3.12011 9.82322 3.07322C9.87011 3.02634 9.9337 3 10 3C10.0663 3 10.1299 3.02634 10.1768 3.07322C10.2237 3.12011 10.25 3.1837 10.25 3.25V4.25C10.25 4.28284 10.2436 4.31535 10.231 4.34569C10.2185 4.37603 10.2 4.4036 10.1768 4.42682C10.1536 4.45004 10.126 4.46845 10.0957 4.48101C10.0654 4.49357 10.0328 4.50002 10 4.5Z" fill="white"/>
<path d="M7.12522 5.27025C7.08128 5.27033 7.0381 5.25881 7.00004 5.23686C6.96197 5.21492 6.93037 5.18332 6.90842 5.14525L6.40842 4.27929C6.37531 4.22186 6.36636 4.15363 6.38354 4.0896C6.40072 4.02557 6.44263 3.97099 6.50004 3.93785C6.55745 3.90471 6.62568 3.89572 6.68972 3.91287C6.75375 3.93002 6.80836 3.97189 6.84153 4.02929L7.34153 4.89525C7.36347 4.93324 7.37503 4.97634 7.37504 5.02021C7.37505 5.06408 7.36352 5.10718 7.3416 5.14518C7.31968 5.18318 7.28815 5.21474 7.25016 5.2367C7.21218 5.25865 7.16909 5.27023 7.12522 5.27025Z" fill="white"/>
<path d="M5.01994 7.37498C4.97614 7.37501 4.9331 7.36347 4.89519 7.34153L4.02923 6.84153C3.97183 6.80836 3.92995 6.75375 3.91281 6.68972C3.89566 6.62568 3.90464 6.55745 3.93778 6.50004C3.97093 6.44263 4.02551 6.40072 4.08954 6.38354C4.15357 6.36636 4.2218 6.37531 4.27923 6.40842L5.14519 6.90842C5.19289 6.93594 5.23018 6.97844 5.25125 7.02932C5.27232 7.0802 5.276 7.13661 5.26172 7.1898C5.24744 7.24298 5.216 7.28997 5.17228 7.32345C5.12856 7.35694 5.07501 7.37505 5.01994 7.37498Z" fill="white"/>
<path d="M4.25 10.25H3.25C3.1837 10.25 3.12011 10.2237 3.07322 10.1768C3.02634 10.1299 3 10.0663 3 10C3 9.9337 3.02634 9.87011 3.07322 9.82322C3.12011 9.77634 3.1837 9.75 3.25 9.75H4.25C4.3163 9.75 4.37989 9.77634 4.42678 9.82322C4.47366 9.87011 4.5 9.9337 4.5 10C4.5 10.0663 4.47366 10.1299 4.42678 10.1768C4.37989 10.2237 4.3163 10.25 4.25 10.25Z" fill="white"/>
<path d="M4.15463 13.625C4.09956 13.6251 4.046 13.6069 4.00228 13.5735C3.95856 13.54 3.92712 13.493 3.91285 13.4398C3.89857 13.3866 3.90225 13.3302 3.92332 13.2793C3.94439 13.2284 3.98168 13.1859 4.02938 13.1584L4.89534 12.6584C4.92378 12.642 4.95518 12.6313 4.98774 12.627C5.02031 12.6227 5.0534 12.6249 5.08513 12.6334C5.11686 12.6419 5.1466 12.6565 5.17266 12.6765C5.19872 12.6965 5.22058 12.7215 5.23701 12.7499C5.25343 12.7784 5.26408 12.8098 5.26836 12.8423C5.27264 12.8749 5.27046 12.908 5.26195 12.9397C5.25344 12.9714 5.23876 13.0012 5.21875 13.0272C5.19874 13.0533 5.1738 13.0751 5.14534 13.0915L4.27938 13.5915C4.24147 13.6135 4.19843 13.625 4.15463 13.625Z" fill="white"/>
<path d="M6.62482 16.0957C6.58095 16.0957 6.53786 16.0841 6.49988 16.0622C6.4619 16.0402 6.43036 16.0087 6.40844 15.9707C6.38652 15.9327 6.37499 15.8896 6.375 15.8457C6.37501 15.8018 6.38657 15.7587 6.40851 15.7207L6.90851 14.8548C6.92492 14.8263 6.94677 14.8014 6.97282 14.7814C6.99887 14.7613 7.0286 14.7467 7.06033 14.7382C7.09205 14.7296 7.12514 14.7275 7.15771 14.7317C7.19027 14.736 7.22168 14.7467 7.25013 14.7631C7.27857 14.7795 7.30351 14.8014 7.3235 14.8274C7.3435 14.8535 7.35816 14.8832 7.36666 14.915C7.37515 14.9467 7.37731 14.9798 7.37302 15.0124C7.36872 15.0449 7.35805 15.0763 7.34162 15.1048L6.84162 15.9707C6.81967 16.0088 6.78807 16.0404 6.75 16.0623C6.71194 16.0843 6.66876 16.0958 6.62482 16.0957Z" fill="white"/>
<path d="M10 17C9.96716 17 9.93465 16.9936 9.90431 16.981C9.87397 16.9685 9.8464 16.95 9.82318 16.9268C9.79996 16.9036 9.78155 16.876 9.76899 16.8457C9.75643 16.8154 9.74998 16.7828 9.75 16.75V15.75C9.75 15.6837 9.77634 15.6201 9.82322 15.5732C9.87011 15.5263 9.9337 15.5 10 15.5C10.0663 15.5 10.1299 15.5263 10.1768 15.5732C10.2237 15.6201 10.25 15.6837 10.25 15.75V16.75C10.25 16.7828 10.2436 16.8154 10.231 16.8457C10.2185 16.876 10.2 16.9036 10.1768 16.9268C10.1536 16.95 10.126 16.9685 10.0957 16.981C10.0654 16.9936 10.0328 17 10 17Z" fill="white"/>
<path d="M13.3753 16.0957C13.3314 16.0958 13.2882 16.0843 13.2502 16.0623C13.2121 16.0404 13.1805 16.0088 13.1586 15.9707L12.6586 15.1048C12.6421 15.0763 12.6314 15.0449 12.6271 15.0124C12.6229 14.9798 12.625 14.9467 12.6335 14.915C12.642 14.8832 12.6567 14.8535 12.6767 14.8274C12.6967 14.8014 12.7216 14.7795 12.75 14.7631C12.7785 14.7467 12.8099 14.736 12.8425 14.7317C12.875 14.7275 12.9081 14.7296 12.9398 14.7382C12.9716 14.7467 13.0013 14.7613 13.0273 14.7814C13.0534 14.8014 13.0753 14.8263 13.0917 14.8548L13.5917 15.7207C13.6136 15.7587 13.6252 15.8018 13.6252 15.8457C13.6252 15.8896 13.6136 15.9327 13.5917 15.9707C13.5698 16.0087 13.5383 16.0402 13.5003 16.0622C13.4623 16.0841 13.4192 16.0957 13.3753 16.0957Z" fill="white"/>
<path d="M15.8454 13.625C15.8016 13.625 15.7585 13.6135 15.7206 13.5915L14.8546 13.0915C14.8262 13.0751 14.8012 13.0533 14.7812 13.0272C14.7612 13.0012 14.7465 12.9714 14.738 12.9397C14.7295 12.908 14.7273 12.8749 14.7316 12.8423C14.7359 12.8098 14.7466 12.7784 14.763 12.7499C14.7794 12.7215 14.8013 12.6965 14.8273 12.6765C14.8534 12.6565 14.8831 12.6419 14.9149 12.6334C14.9466 12.6249 14.9797 12.6227 15.0122 12.627C15.0448 12.6313 15.0762 12.642 15.1046 12.6584L15.9706 13.1584C16.0183 13.1859 16.0556 13.2284 16.0767 13.2793C16.0977 13.3302 16.1014 13.3866 16.0871 13.4398C16.0729 13.493 16.0414 13.54 15.9977 13.5735C15.954 13.6069 15.9004 13.6251 15.8454 13.625Z" fill="white"/>
<path d="M16.75 10.25H15.75C15.6837 10.25 15.6201 10.2237 15.5732 10.1768C15.5263 10.1299 15.5 10.0663 15.5 10C15.5 9.9337 15.5263 9.87011 15.5732 9.82322C15.6201 9.77634 15.6837 9.75 15.75 9.75H16.75C16.8163 9.75 16.8799 9.77634 16.9268 9.82322C16.9737 9.87011 17 9.9337 17 10C17 10.0663 16.9737 10.1299 16.9268 10.1768C16.8799 10.2237 16.8163 10.25 16.75 10.25Z" fill="white"/>
<path d="M14.9798 7.37498C14.9248 7.37505 14.8712 7.35694 14.8275 7.32345C14.7838 7.28997 14.7523 7.24298 14.738 7.1898C14.7238 7.13661 14.7274 7.0802 14.7485 7.02932C14.7696 6.97844 14.8069 6.93594 14.8546 6.90842L15.7205 6.40842C15.778 6.37531 15.8462 6.36636 15.9102 6.38354C15.9743 6.40072 16.0288 6.44263 16.062 6.50004C16.0951 6.55745 16.1041 6.62568 16.087 6.68972C16.0698 6.75375 16.0279 6.80836 15.9705 6.84153L15.1046 7.34153C15.0667 7.36347 15.0236 7.37501 14.9798 7.37498Z" fill="white"/>
<path d="M12.8748 5.27029C12.8309 5.27026 12.7879 5.25869 12.7499 5.23674C12.7119 5.21478 12.6804 5.18322 12.6584 5.14522C12.6365 5.10722 12.625 5.06411 12.625 5.02024C12.625 4.97637 12.6366 4.93328 12.6585 4.89529L13.1585 4.02933C13.1749 4.00087 13.1968 3.97593 13.2228 3.95592C13.2489 3.93591 13.2786 3.92123 13.3103 3.91272C13.3421 3.9042 13.3751 3.90203 13.4077 3.90631C13.4403 3.91059 13.4717 3.92124 13.5001 3.93766C13.5286 3.95408 13.5535 3.97595 13.5735 4.00201C13.5935 4.02807 13.6082 4.05781 13.6167 4.08954C13.6252 4.12127 13.6273 4.15436 13.623 4.18692C13.6187 4.21949 13.6081 4.25089 13.5916 4.27933L13.0916 5.14529C13.0697 5.18335 13.0381 5.21495 13 5.2369C12.9619 5.25885 12.9188 5.27037 12.8748 5.27029Z" fill="white"/>
<path d="M8.57701 12.3453L6.89822 10.6665C6.81687 10.5848 6.75243 10.4878 6.70857 10.3811C6.6647 10.2745 6.64228 10.1602 6.64258 10.0449C6.64288 9.92952 6.66589 9.81538 6.71031 9.70894C6.75472 9.6025 6.81966 9.50585 6.90143 9.4245C6.98277 9.34274 7.07942 9.2778 7.18586 9.23339C7.2923 9.18897 7.40645 9.16596 7.52178 9.16567C7.63712 9.16537 7.75138 9.18779 7.85805 9.23165C7.96472 9.27551 8.0617 9.33996 8.14346 9.4213L9.13402 10.4119L11.8596 7.68627C11.9409 7.6045 12.0376 7.53956 12.144 7.49515C12.2505 7.45074 12.3646 7.42773 12.48 7.42743C12.5953 7.42713 12.7096 7.44956 12.8162 7.49342C12.9229 7.53728 13.0199 7.60172 13.1016 7.68307C13.183 7.76483 13.2474 7.86181 13.2913 7.96848C13.3351 8.07515 13.3576 8.18941 13.3573 8.30475C13.357 8.42008 13.334 8.53423 13.2895 8.64067C13.2451 8.74711 13.1802 8.84376 13.0984 8.9251L9.68104 12.3425C9.53502 12.4893 9.33666 12.572 9.12961 12.5726C8.92257 12.5731 8.72379 12.4914 8.57701 12.3453Z" fill="white"/>
</svg>
