<svg width="1728" height="5723" viewBox="0 0 1728 5723" fill="none" xmlns="http://www.w3.org/2000/svg">
<g filter="url(#filter0_f_1_34)">
<path d="M-572.133 1291.41C-852.133 1347.41 -536.133 1619.41 -540.133 1639.41C-436.133 1774.51 -192.133 1639.41 11.8671 1587.41C215.867 1535.41 163.867 1615.41 403.867 1547.41C643.867 1479.41 751.867 1171.41 715.867 947.412C679.867 723.412 619.867 887.412 443.867 1003.41C267.867 1119.41 359.867 903.412 187.867 887.412C15.8671 871.412 75.8671 1067.41 -16.1329 1267.41C-108.133 1467.41 -292.133 1235.41 -572.133 1291.41Z" fill="#356FF4" fill-opacity="0.2"/>
</g>
<g filter="url(#filter1_f_1_34)">
<path d="M-572.281 2742.65C-628.744 2307 -577.348 -189.26 -495.792 -661.21C-436.599 -1003.74 -294.13 -8.35712 -183.318 -25.7208C-153.888 -429.953 -152.768 -298.128 -159.627 -29.7694C512.875 -148.472 1819.04 -689.358 1952.96 -316.23C2122.35 155.72 2305.68 700.829 2261.76 1717.34C2217.85 2733.84 2440.83 1045.87 2478.47 2298.36C2516.11 3550.84 2244.56 4575.99 2056.36 6354.88C1849.33 7335.08 1918.34 6554.55 1780.32 6536.4C1642.3 6518.25 1679.94 6445.64 1058.85 6645.31C437.767 6844.98 902.014 6826.83 61.3522 7189.87C-779.31 7552.9 -252.328 7189.87 -434.262 6645.31C-616.197 6100.75 -434.262 6064.45 -572.281 5374.67C-686.954 4801.58 -721.061 4987.26 -671.748 4670.87C-719.75 4947.63 -778.978 5216.51 -793.759 4985.57C-825.127 4495.47 -515.819 3178.29 -572.281 2742.65Z" fill="#0A093E"/>
</g>
<g filter="url(#filter2_f_1_34)">
<path d="M226 425C226 623.823 64.8225 785 -134 785C-332.823 785 -494 623.823 -494 425C-494 226.177 -332.823 65 -134 65C64.8225 65 226 226.177 226 425Z" fill="#9E5BF1" fill-opacity="0.5"/>
</g>
<g opacity="0.5" filter="url(#filter3_f_1_34)">
<path d="M1502 2358C1502 2556.82 1340.82 2718 1142 2718C943.177 2718 782 2556.82 782 2358C782 2159.18 943.177 1998 1142 1998C1340.82 1998 1502 2159.18 1502 2358Z" fill="#9E5BF1" fill-opacity="0.5"/>
</g>
<g opacity="0.5" filter="url(#filter4_f_1_34)">
<path d="M1495 4410C1495 4608.82 1333.82 4770 1135 4770C936.177 4770 775 4608.82 775 4410C775 4211.18 936.177 4050 1135 4050C1333.82 4050 1495 4211.18 1495 4410Z" fill="#9E5BF1" fill-opacity="0.5"/>
</g>
<g opacity="0.5" filter="url(#filter5_f_1_34)">
<path d="M1952 5450C1952 5648.82 1790.82 5810 1592 5810C1393.18 5810 1232 5648.82 1232 5450C1232 5251.18 1393.18 5090 1592 5090C1790.82 5090 1952 5251.18 1952 5450Z" fill="#9E5BF1" fill-opacity="0.5"/>
</g>
<g filter="url(#filter6_f_1_34)">
<circle cx="1670.5" cy="860.5" r="365.5" fill="#9E5BF1" fill-opacity="0.3"/>
</g>
<g filter="url(#filter7_f_1_34)">
<circle cx="275.5" cy="1995.5" r="365.5" fill="#9E5BF1" fill-opacity="0.3"/>
</g>
<g filter="url(#filter8_f_1_34)">
<circle cx="268.5" cy="4047.5" r="365.5" fill="#9E5BF1" fill-opacity="0.3"/>
</g>
<g opacity="0.4" filter="url(#filter9_f_1_34)">
<circle cx="1728.5" cy="5034.5" r="365.5" fill="#356FF4"/>
</g>
<g filter="url(#filter10_f_1_34)">
<circle cx="868" cy="1312" r="360" fill="#356FF4" fill-opacity="0.3"/>
</g>
<g filter="url(#filter11_f_1_34)">
<circle cx="1083" cy="3322" r="360" fill="#356FF4" fill-opacity="0.5"/>
</g>
<g opacity="0.4" filter="url(#filter12_f_1_34)">
<circle cx="-85" cy="2903" r="360" fill="#356FF4" fill-opacity="0.5"/>
</g>
<g opacity="0.4" filter="url(#filter13_f_1_34)">
<circle cx="-92" cy="4955" r="360" fill="#356FF4" fill-opacity="0.5"/>
</g>
<g opacity="0.4" filter="url(#filter14_f_1_34)">
<circle cx="591" cy="5784" r="360" fill="#356FF4" fill-opacity="0.5"/>
</g>
<g filter="url(#filter15_f_1_34)">
<ellipse cx="1394.17" cy="22.9425" rx="180" ry="360" transform="rotate(-29.5598 1394.17 22.9425)" fill="#356FF4" fill-opacity="0.3"/>
</g>
<g filter="url(#filter16_f_1_34)">
<ellipse cx="0.171014" cy="1405.94" rx="180" ry="360" transform="rotate(-29.5598 0.171014 1405.94)" fill="#356FF4" fill-opacity="0.3"/>
</g>
<defs>
<filter id="filter0_f_1_34" x="-988" y="536" width="2010.64" height="1461.69" filterUnits="userSpaceOnUse" color-interpolation-filters="sRGB">
<feFlood flood-opacity="0" result="BackgroundImageFix"/>
<feBlend mode="normal" in="SourceGraphic" in2="BackgroundImageFix" result="shape"/>
<feGaussianBlur stdDeviation="150" result="effect1_foregroundBlur_1_34"/>
</filter>
<filter id="filter1_f_1_34" x="-1096" y="-1033" width="3878" height="8669" filterUnits="userSpaceOnUse" color-interpolation-filters="sRGB">
<feFlood flood-opacity="0" result="BackgroundImageFix"/>
<feBlend mode="normal" in="SourceGraphic" in2="BackgroundImageFix" result="shape"/>
<feGaussianBlur stdDeviation="150" result="effect1_foregroundBlur_1_34"/>
</filter>
<filter id="filter2_f_1_34" x="-794" y="-235" width="1320" height="1320" filterUnits="userSpaceOnUse" color-interpolation-filters="sRGB">
<feFlood flood-opacity="0" result="BackgroundImageFix"/>
<feBlend mode="normal" in="SourceGraphic" in2="BackgroundImageFix" result="shape"/>
<feGaussianBlur stdDeviation="150" result="effect1_foregroundBlur_1_34"/>
</filter>
<filter id="filter3_f_1_34" x="482" y="1698" width="1320" height="1320" filterUnits="userSpaceOnUse" color-interpolation-filters="sRGB">
<feFlood flood-opacity="0" result="BackgroundImageFix"/>
<feBlend mode="normal" in="SourceGraphic" in2="BackgroundImageFix" result="shape"/>
<feGaussianBlur stdDeviation="150" result="effect1_foregroundBlur_1_34"/>
</filter>
<filter id="filter4_f_1_34" x="475" y="3750" width="1320" height="1320" filterUnits="userSpaceOnUse" color-interpolation-filters="sRGB">
<feFlood flood-opacity="0" result="BackgroundImageFix"/>
<feBlend mode="normal" in="SourceGraphic" in2="BackgroundImageFix" result="shape"/>
<feGaussianBlur stdDeviation="150" result="effect1_foregroundBlur_1_34"/>
</filter>
<filter id="filter5_f_1_34" x="932" y="4790" width="1320" height="1320" filterUnits="userSpaceOnUse" color-interpolation-filters="sRGB">
<feFlood flood-opacity="0" result="BackgroundImageFix"/>
<feBlend mode="normal" in="SourceGraphic" in2="BackgroundImageFix" result="shape"/>
<feGaussianBlur stdDeviation="150" result="effect1_foregroundBlur_1_34"/>
</filter>
<filter id="filter6_f_1_34" x="1005" y="195" width="1331" height="1331" filterUnits="userSpaceOnUse" color-interpolation-filters="sRGB">
<feFlood flood-opacity="0" result="BackgroundImageFix"/>
<feBlend mode="normal" in="SourceGraphic" in2="BackgroundImageFix" result="shape"/>
<feGaussianBlur stdDeviation="150" result="effect1_foregroundBlur_1_34"/>
</filter>
<filter id="filter7_f_1_34" x="-390" y="1330" width="1331" height="1331" filterUnits="userSpaceOnUse" color-interpolation-filters="sRGB">
<feFlood flood-opacity="0" result="BackgroundImageFix"/>
<feBlend mode="normal" in="SourceGraphic" in2="BackgroundImageFix" result="shape"/>
<feGaussianBlur stdDeviation="150" result="effect1_foregroundBlur_1_34"/>
</filter>
<filter id="filter8_f_1_34" x="-397" y="3382" width="1331" height="1331" filterUnits="userSpaceOnUse" color-interpolation-filters="sRGB">
<feFlood flood-opacity="0" result="BackgroundImageFix"/>
<feBlend mode="normal" in="SourceGraphic" in2="BackgroundImageFix" result="shape"/>
<feGaussianBlur stdDeviation="150" result="effect1_foregroundBlur_1_34"/>
</filter>
<filter id="filter9_f_1_34" x="1063" y="4369" width="1331" height="1331" filterUnits="userSpaceOnUse" color-interpolation-filters="sRGB">
<feFlood flood-opacity="0" result="BackgroundImageFix"/>
<feBlend mode="normal" in="SourceGraphic" in2="BackgroundImageFix" result="shape"/>
<feGaussianBlur stdDeviation="150" result="effect1_foregroundBlur_1_34"/>
</filter>
<filter id="filter10_f_1_34" x="208" y="652" width="1320" height="1320" filterUnits="userSpaceOnUse" color-interpolation-filters="sRGB">
<feFlood flood-opacity="0" result="BackgroundImageFix"/>
<feBlend mode="normal" in="SourceGraphic" in2="BackgroundImageFix" result="shape"/>
<feGaussianBlur stdDeviation="150" result="effect1_foregroundBlur_1_34"/>
</filter>
<filter id="filter11_f_1_34" x="423" y="2662" width="1320" height="1320" filterUnits="userSpaceOnUse" color-interpolation-filters="sRGB">
<feFlood flood-opacity="0" result="BackgroundImageFix"/>
<feBlend mode="normal" in="SourceGraphic" in2="BackgroundImageFix" result="shape"/>
<feGaussianBlur stdDeviation="150" result="effect1_foregroundBlur_1_34"/>
</filter>
<filter id="filter12_f_1_34" x="-745" y="2243" width="1320" height="1320" filterUnits="userSpaceOnUse" color-interpolation-filters="sRGB">
<feFlood flood-opacity="0" result="BackgroundImageFix"/>
<feBlend mode="normal" in="SourceGraphic" in2="BackgroundImageFix" result="shape"/>
<feGaussianBlur stdDeviation="150" result="effect1_foregroundBlur_1_34"/>
</filter>
<filter id="filter13_f_1_34" x="-752" y="4295" width="1320" height="1320" filterUnits="userSpaceOnUse" color-interpolation-filters="sRGB">
<feFlood flood-opacity="0" result="BackgroundImageFix"/>
<feBlend mode="normal" in="SourceGraphic" in2="BackgroundImageFix" result="shape"/>
<feGaussianBlur stdDeviation="150" result="effect1_foregroundBlur_1_34"/>
</filter>
<filter id="filter14_f_1_34" x="-69" y="5124" width="1320" height="1320" filterUnits="userSpaceOnUse" color-interpolation-filters="sRGB">
<feFlood flood-opacity="0" result="BackgroundImageFix"/>
<feBlend mode="normal" in="SourceGraphic" in2="BackgroundImageFix" result="shape"/>
<feGaussianBlur stdDeviation="150" result="effect1_foregroundBlur_1_34"/>
</filter>
<filter id="filter15_f_1_34" x="857.406" y="-602.631" width="1073.53" height="1251.15" filterUnits="userSpaceOnUse" color-interpolation-filters="sRGB">
<feFlood flood-opacity="0" result="BackgroundImageFix"/>
<feBlend mode="normal" in="SourceGraphic" in2="BackgroundImageFix" result="shape"/>
<feGaussianBlur stdDeviation="150" result="effect1_foregroundBlur_1_34"/>
</filter>
<filter id="filter16_f_1_34" x="-536.594" y="780.369" width="1073.53" height="1251.15" filterUnits="userSpaceOnUse" color-interpolation-filters="sRGB">
<feFlood flood-opacity="0" result="BackgroundImageFix"/>
<feBlend mode="normal" in="SourceGraphic" in2="BackgroundImageFix" result="shape"/>
<feGaussianBlur stdDeviation="150" result="effect1_foregroundBlur_1_34"/>
</filter>
</defs>
</svg>
