 <svg width="14" height="18" viewBox="0 0 14 18" fill="none" xmlns="http://www.w3.org/2000/svg"> <path fillRule="evenodd" clipRule="evenodd" d="M13.6486 14.0315C14.0655 13.6692 14.1096 13.0375 13.7473 12.6207C13.385 12.2039 12.7533 12.1597 12.3365 12.5221L10.9566 13.7216L11.3462 8.14945C11.3848 7.59851 10.9694 7.12066 10.4184 7.08213C9.86749 7.0436 9.38963 7.459 9.35111 8.00994L8.96146 13.5821L7.76191 12.2022C7.39958 11.7854 6.76795 11.7412 6.35114 12.1035C5.93432 12.4659 5.89016 13.0975 6.25249 13.5143L9.03591 16.7163L9.69197 17.471L10.4467 16.8149L13.6486 14.0315ZM7.64865 4.10843C8.06546 4.47076 8.10963 5.10238 7.7473 5.5192C7.38497 5.93601 6.75334 5.98018 6.33653 5.61785L4.9566 4.41829L5.34624 9.99047C5.38477 10.5414 4.96937 11.0193 4.41843 11.0578C3.8675 11.0963 3.38964 10.6809 3.35111 10.13L2.96147 4.5578L1.76191 5.93773C1.39958 6.35455 0.767958 6.39872 0.351145 6.03638C-0.0656702 5.67405 -0.109838 5.04243 0.252494 4.62562L3.03592 1.42365L3.69198 0.668945L4.44669 1.325L7.64865 4.10843Z" fill="#453936" /> </svg>
