<svg width="24" height="24" viewBox="0 0 24 24" fill="none" xmlns="http://www.w3.org/2000/svg">
<path fill-rule="evenodd" clip-rule="evenodd" d="M12.1843 4.9375L12.8451 5.51917L16.3451 8.60028C16.7597 8.96521 16.7999 9.59709 16.435 10.0116C16.07 10.4262 15.4381 10.4664 15.0236 10.1015L12.1843 7.60205L9.3451 10.1015C8.93056 10.4664 8.29867 10.4262 7.93374 10.0116C7.56881 9.5971 7.60903 8.96522 8.02358 8.60029L11.5236 5.51918L12.1843 4.9375Z" fill="#453936"/>
<path fill-rule="evenodd" clip-rule="evenodd" d="M12.1843 19.0508L12.8451 18.4691L16.3451 15.388C16.7597 15.0231 16.7999 14.3912 16.435 13.9766C16.07 13.5621 15.4381 13.5219 15.0236 13.8868L12.1843 16.3862L9.3451 13.8868C8.93056 13.5219 8.29867 13.5621 7.93374 13.9766C7.56881 14.3912 7.60903 15.0231 8.02358 15.388L11.5236 18.4691L12.1843 19.0508Z" fill="#453936"/>
</svg>
